<?xml version="1.0" encoding="UTF-8"?>
<svg id="Layer_1" xmlns="http://www.w3.org/2000/svg" version="1.1" viewBox="0 0 181.84 82.52">
  <!-- Generator: Adobe Illustrator 30.0.0, SVG Export Plug-In . SVG Version: 2.1.1 Build 123)  -->
  <defs>
    <style>
      .st0 {
        fill: #db7693;
      }

      .st1 {
        fill: #db7693;
      }

      .st2 {
        fill: #eecf8f;
      }
    </style>
  </defs>
  <path class="st2" d="M3.89,55.25l12.56,27.27,12.16-26.98c-3.74,2.42-7.3,3.25-12.3,3.16-4.73.07-8.56-.95-12.42-3.47v.02h0Z"/>
  <g>
    <path class="st0" d="M16.31,12.58c0-.56.66-1.01,1.28-1.01s1.1.49,2.24.49c1.06,0,2.73-1.08,2.73-3.86,0-4.24-2.07-5.28-4.44-5.28-3.92,0-7.53,4.79-7.53,12.54,0,6.18,5.02,8.48,9.07,8.48,4.66,0,7.7-2.67,8.8-4.48,1.1-1.81,1.36-2.22,1.85-2.22s.75.42.75,1.56-.4,1.29-.4,1.29c0,0,.4,1.08.4,1.74,0,1.29-5.9,6.5-13.29,6.5-9.07-.02-16.33-4.29-16.33-13.08C1.44,4.97,10.86.49,16.14.49c0,0,1.14-.49,4.05-.49,4.22,0,9.64,2.74,9.64,8.55,0,4.31-5.15,6.15-8.49,6.15-3.08,0-5.02-1.32-5.02-2.12h0Z"/>
    <path class="st0" d="M51.66,18.31c0,3.68-3.92,8.55-9.95,8.55-4.84,0-9.15-3.09-9.15-7.36s3.92-8.23,7.17-8.23c4.22,0,5.68,1.49,5.68,1.49,2.82.31,6.25,1.84,6.25,5.56h0ZM40.26,21.16c0,1.01.53,2.33,1.8,2.33s3.3-4.2,3.3-7.19c0-1.04-.84-1.49-1.76-1.49-1.36,0-3.34,3.02-3.34,6.36h0Z"/>
    <path class="st0" d="M54.92,12.54c1.36,0,2.11.56,2.11.56,0,0,2.9.42,2.9,1.56s-.35,1.77-.35,3.16c.88-.87,2.29-5.49,7.04-5.49s6.6,2.15,6.6,3.65-1.36,3.93-1.36,6.01c0,1.67.4,2.01,1.28,2.01,1.41,0,3.13-2.61,3.13-3.23s.35-.87.57-.87c.26,0,.66.45.7,1.25.09.83.48.42.48,1.39s-2.82,4.79-7.88,4.79c-3.92,0-5.85-2.01-5.85-5.38s1.36-5.14,1.36-6.22c0-.31-.22-.49-.66-.49-.4,0-2.68,2.22-3.26,5.49-.48,2.74-.48,3.99-.48,4.72s-2.29,1.6-3.78,1.6c-2.46,0-4.8-1.53-4.8-3.79s.88-7.68.88-8.75c0-.76-.44-1.01-.44-1.29s.44-.7,1.8-.7v.02Z"/>
    <path class="st0" d="M90.52,22.16c1.14-.56,2.16-1.01,3.43-3.09.7-1.15.7-1.63,1.01-1.63s.84.38.84,1.18c0,.49-.4.9-.4,1.35,0,1.67-1.76,4.41-3.92,5.49,0,3.72-.27,8.3-5.99,8.3s-9.64-4.24-9.64-10.91,1.54-14.63,1.54-16.64c0-.49.53-.69,1.45-.69,2.51,0,5.59.9,5.59,2.54s-1.23,10.6-1.23,11.99c0,.03.57-.14,1.76-.14,2.69,0,4.36.69,5.55,2.26h.01ZM85.42,30.95c.79,0,1.19-.9,1.19-2.47,0-1.67-.75-3.06-.88-3.09-1.94-.31-2.82-1.35-2.82-1.35,0,4.06.53,6.91,2.51,6.91Z"/>
    <path class="st0" d="M104.56,12.26c1.85,0,5.19,1.56,5.19,4.59s-2.38,5.49-5.76,5.49c-2.16,0-3.12-.31-3.12-.35.26,1.01,1.36,2.57,4.58,2.57s5.02-1.42,6.29-4.17c.18-.35.26-.76.62-.76.4,0,1.58,1.11,1.58,2.12,0,1.74-2.95,5.52-9.55,5.52-7.57,0-10.83-3.27-10.83-7.61,0-5.32,4.66-7.82,6.38-7.82,1.63,0,.92.42,4.62.42ZM100.73,19.18c0,.63.35.87.97.87.97,0,2.33-3.44,2.33-4.79,0-.31-.35-.59-.84-.59-1.1,0-2.46,3.44-2.46,4.52h0Z"/>
    <path class="st0" d="M113.45,6.22c0-.42-.26-.8-.26-1.04,0-.17.22-.24.53-.24.26,0,2.77.83,4.27,1.18,1.54.38,1.72,1.46,1.72,2.47s-.22,1.67-.22,2.19c0,.14.27.21.66.21,1.06,0,3.12-.38,3.92-.38.4,0,.7.21.7.49,0,.94-1.19,2.12-2.42,2.36-1.54.28-2.99.63-2.99.63,0,0-.7,3.58-.7,6.74,0,2.64.92,3.16,2.38,3.16s3.08-2.4,3.92-4.24c.4-.87.66-1.25,1.01-1.25s.31.73.97,1.15c.62.38.88.76.88,1.95s-2.6,5.25-7.04,5.25c0,0-.92.28-2.02.28-4.31,0-7.39-2.19-7.39-6.91,0-1.46.92-4.59,1.06-6.25.04-.45-1.76-.83-1.76-1.53s2.02-.69,2.02-.69c.4-2.99.79-5,.79-5.49l-.03-.04Z"/>
    <path class="st0" d="M127.41,6.22c0-.42-.26-.8-.26-1.04,0-.17.22-.24.53-.24.26,0,2.77.83,4.27,1.18,1.54.38,1.72,1.46,1.72,2.47s-.22,1.67-.22,2.19c0,.14.27.21.66.21,1.06,0,3.12-.38,3.92-.38.4,0,.7.21.7.49,0,.94-1.19,2.12-2.42,2.36-1.54.28-2.99.63-2.99.63,0,0-.7,3.58-.7,6.74,0,2.64.92,3.16,2.38,3.16s3.08-2.4,3.92-4.24c.4-.87.66-1.25,1.01-1.25s.31.73.97,1.15c.62.38.88.76.88,1.95s-2.6,5.25-7.04,5.25c0,0-.92.28-2.02.28-4.31,0-7.39-2.19-7.39-6.91,0-1.46.92-4.59,1.06-6.25.04-.45-1.76-.83-1.76-1.53s2.02-.69,2.02-.69c.4-2.99.79-5,.79-5.49l-.03-.04Z"/>
    <path class="st0" d="M141.27,12.19c1.76,0,5.46.59,5.46,2.43s-.66,4.72-.66,7.23.75,2.64,1.32,2.64c1.67,0,4.05-3.96,4.58-5.14.53-1.22.7-1.63,1.01-1.63s.7.8.7,1.25c0,.38-.18.66-.18.97,0,.28.09.45.09.66,0,.59-.27,1.49-1.06,2.78-.97,1.56-2.55,3.68-6.91,3.68s-6.51-2.64-6.51-6.25.7-5.49.7-6.46-.13-1.04-.13-1.29c0-.63.66-.87,1.58-.87h0ZM147.12,7.36c0,1.84-.13,3.72-2.73,3.72s-4.49-1.56-4.49-3.68,2.46-2.54,3.35-2.54c1.5,0,3.87.63,3.87,2.5Z"/>
    <path class="st0" d="M16.31,41.53c0-.56.66-1.01,1.28-1.01s1.1.49,2.24.49c1.06,0,2.73-1.08,2.73-3.86,0-4.24-2.07-5.28-4.44-5.28-3.92,0-7.53,4.79-7.53,12.54,0,6.18,5.02,8.48,9.07,8.48,4.66,0,7.7-2.67,8.8-4.48s1.36-2.22,1.85-2.22.75.42.75,1.56-.4,1.28-.4,1.28c0,0,.4,1.08.4,1.74,0,1.29-5.9,6.5-13.29,6.5-9.07,0-16.33-4.27-16.33-13.06,0-10.28,9.42-14.76,14.7-14.76,0,0,1.14-.49,4.05-.49,4.22,0,9.64,2.74,9.64,8.55,0,4.31-5.15,6.15-8.49,6.15-3.08,0-5.02-1.32-5.02-2.12h0Z"/>
    <path class="st0" d="M37.71,39.31c0,1.35-.13,2.08-.13,2.08,0,.73,8.8.52,8.8,3.4s-.53,4.62-.53,6.22.7,2.15,1.41,2.15c1.06,0,2.64-3.54,3.04-4.79s.48-1.32.75-1.32c.31,0,.7.7,1.19,1.25.26.35.53.87.53,1.56,0,.45-.09.97-.4,1.53-.79,1.49-3.34,4.72-7.53,4.72s-6.21-2.33-6.21-5.59c0-2.05.97-3.68.97-4.55,0-.35-1.85-.94-2.11-.94s-.09,2.64-1.41,5.97c-1.28,3.2-2.9,4.62-5.37,4.62-1.41,0-2.24-.59-2.24-.94s.62-.21,1.23-.63c2.02-1.39,3.92-5.32,4.62-10.8-1.76-1.39-3.43-2.71-3.43-4.45s2.33-2.95,3.7-2.95c2.29,0,3.12,1.15,3.12,3.44v.02Z"/>
    <path class="st0" d="M60.9,41.22c1.85,0,5.19,1.56,5.19,4.59s-2.38,5.49-5.77,5.49c-2.16,0-3.12-.31-3.12-.35.26,1.01,1.36,2.57,4.58,2.57s5.02-1.42,6.29-4.17c.18-.35.26-.76.62-.76.4,0,1.58,1.11,1.58,2.12,0,1.74-2.95,5.52-9.55,5.52-7.57,0-10.83-3.27-10.83-7.61,0-5.32,4.66-7.82,6.38-7.82s.92.42,4.62.42h0ZM57.07,48.13c0,.62.35.87.97.87.97,0,2.33-3.44,2.33-4.79,0-.31-.35-.59-.84-.59-1.1,0-2.46,3.44-2.46,4.52h0Z"/>
    <path class="st0" d="M82.91,42.22c0,.59-1.01.8-1.01.94,0,.1.18.14.79.24.84.14,3.83.38,3.83,1.46s-.66,2.74-.66,5,.31,2.54.88,2.54c.75,0,2.16-2.88,2.9-4.52.31-.62.57-1.01.92-1.01.31,0,.44.17.44.52,0,.42-.22.87-.22,1.22,0,.38.26.66.26,2.4s-1.76,4.72-6.12,4.72-5.81-2.61-5.81-2.61c-1.41,1.63-2.77,2.85-5.11,2.85-3.92,0-6.43-2.95-6.43-5.87,0-5.11,4.53-9.59,8.76-9.59,2.33,0,6.56,1.11,6.56,1.7h.02ZM73.93,51.71c0,.73.48,1.15,1.28,1.15,1.72,0,4.8-5.59,4.8-8.41-4.05,1.18-6.07,5.45-6.07,7.26h-.01Z"/>
    <path class="st0" d="M91.71,40.66c1.28,0,4.97.59,4.97,1.67s-.53,1.84-.53,3.58c.92-.9,2.24-4.76,5.94-4.76s5.63.83,5.63,2.29-.26,1.84-.26,2.64c0,0,2.64-4,6.42-4s4.75,1.84,4.75,3.72-.97,3.27-.97,5.28c0,.97.44,1.36.84,1.36.97,0,2.16-1.36,2.55-2.43.4-1.04.57-1.53.92-1.53.31,0,.84.52.84.94,0,.45-.26,1.18-.26,1.18,0,0,.04.14.04.42,0,.45-.13,1.29-.7,2.15-.88,1.39-3.12,2.88-6.29,2.88-2.2,0-5.55-1.22-5.55-4.55,0-1.95.88-3.26.88-3.99,0-.28-.18-.52-.44-.52-.7,0-2.73,1.81-3.61,5.59-.31,1.42-.04,2.74-3.08,2.74s-4.49-.9-4.49-4.03c0-1.63,1.01-4.1,1.01-4.79,0-.42-.27-.7-.7-.7-.48,0-3.26,3.75-3.26,6.11s.31,2.47.31,3.13-1.28,1.04-2.55,1.04c-2.68,0-4.93-1.39-4.93-5.14,0-6.67.97-7.96.97-8.72s-.31-.76-.31-.97c0-.17.53-.59,1.85-.59h.01Z"/>
    <path class="st0" d="M131.67,41.22c1.85,0,5.19,1.56,5.19,4.59s-2.38,5.49-5.76,5.49c-2.16,0-3.12-.31-3.12-.35.26,1.01,1.36,2.57,4.58,2.57s5.02-1.42,6.29-4.17c.18-.35.26-.76.62-.76.4,0,1.58,1.11,1.58,2.12,0,1.74-2.95,5.52-9.55,5.52-7.57,0-10.83-3.27-10.83-7.61,0-5.32,4.66-7.82,6.38-7.82,1.63,0,.92.42,4.62.42h0ZM127.85,48.13c0,.62.35.87.97.87.97,0,2.33-3.44,2.33-4.79,0-.31-.35-.59-.84-.59-1.1,0-2.46,3.44-2.46,4.52h0Z"/>
    <path class="st0" d="M143.07,39.31c0,1.35-.13,2.08-.13,2.08,0,.73,8.8.52,8.8,3.4s-.53,4.62-.53,6.22.7,2.15,1.41,2.15c1.06,0,2.64-3.54,3.04-4.79s.48-1.32.75-1.32c.31,0,.7.7,1.19,1.25.26.35.53.87.53,1.56,0,.45-.09.97-.4,1.53-.79,1.49-3.34,4.72-7.53,4.72s-6.21-2.33-6.21-5.59c0-2.05.97-3.68.97-4.55,0-.35-1.85-.94-2.11-.94s-.09,2.64-1.41,5.97c-1.28,3.2-2.9,4.62-5.37,4.62-1.41,0-2.24-.59-2.24-.94s.62-.21,1.23-.63c2.02-1.39,3.92-5.32,4.62-10.8-1.76-1.39-3.43-2.71-3.43-4.45s2.33-2.95,3.7-2.95c2.29,0,3.12,1.15,3.12,3.44v.02Z"/>
    <path class="st0" d="M164.07,43.4c0,1.32-1.28,4.31-1.28,6.77,0,1.63.35,2.47,1.45,2.47,2.29,0,4.05-5.18,4.05-8.09,0-.49-.35-1.25-.35-1.81s.84-1.25,2.6-1.25,5.46,1.08,5.46,4.13-.75,7.89-.75,8.75c0,.17.04.24.18.24.62-.03,2.77-2.19,3.43-3.27.84-1.32.92-2.02,1.45-2.02s1.28,1.6,1.28,2.88c0,2.95-5.06,5.8-6.73,6.32-1.19,3.4-2.86,7.26-10.03,7.26-5.55,0-8.32-1.98-8.32-3.47,0-2.81,11.09-5.11,11.09-5.11l.13-2.81s-1.5,1.67-4.93,1.67-7.35-2.08-7.35-6.98,1.67-7.57,2.73-7.57c1.85,0,5.9.52,5.9,1.88h0ZM161.56,62.3c0,.52.66.83,1.45.83,2.51,0,4.4-3.54,4.4-3.54,0,0-5.85,1.67-5.85,2.71h0Z"/>
  </g>
  <g>
    <path class="st1" d="M29.37,73.64h1.48v-10.46h-1.48v-1.06h4.79v1.06h-1.69v10.46h5.1l.09-2.61h1.12v3.69h-9.4v-1.08h0Z"/>
    <path class="st1" d="M39.81,70.66c0-2.43,1.69-4.25,4.39-4.25s4.38,1.82,4.38,4.25-1.69,4.25-4.38,4.25c-2.84,0-4.39-1.82-4.39-4.25ZM47.01,70.66c0-1.93-1.13-3.17-2.81-3.17s-2.81,1.21-2.81,3.17,1.12,3.17,2.81,3.17,2.81-1.12,2.81-3.17Z"/>
    <path class="st1" d="M54.03,66.43c1.85,0,3.29.85,3.29,2.11,0,.63-.47,1.08-1.03,1.08s-.99-.45-.99-.99c0-.27.18-.58.45-.67-.34-.25-.77-.47-1.44-.47-1.71,0-2.92,1.3-2.92,3.13,0,1.93,1.33,3.11,3.04,3.11.94,0,1.8-.45,2.32-1.1l.63.76c-.7.99-1.91,1.49-3.21,1.49-2.61,0-4.38-1.67-4.38-4.23,0-2.36,1.73-4.23,4.21-4.23h.03Z"/>
    <path class="st1" d="M65.52,73.82c.2,0,.4-.07.56-.16l.23.81c-.32.22-.86.41-1.4.41-.76,0-1.08-.4-1.1-1.33-.43.67-1.28,1.33-2.65,1.33-1.57,0-2.67-.94-2.67-2.41,0-1.57,1.26-2.43,3.15-2.43.7,0,1.71.18,2.18.41.02-.29.02-.59.02-.97,0-1.3-.49-2.12-1.89-2.12-.67,0-1.13.16-1.49.36.18.09.43.38.43.76,0,.47-.38.81-.9.81-.58,0-.9-.43-.9-.92,0-1.12,1.46-1.93,3.1-1.93,2.11,0,3.04,1.1,3.04,3.11,0,.9-.07,2.59-.07,3.78,0,.32.07.49.36.49ZM61.68,73.82c1.08,0,1.82-.65,2.11-1.17l.02-1.35c-.5-.25-1.17-.4-1.89-.4-1.13,0-1.89.5-1.89,1.46,0,.85.65,1.46,1.66,1.46h-.01Z"/>
    <path class="st1" d="M71.73,74.25c-.43.36-1.06.61-1.87.61-1.28,0-1.89-.74-1.89-2.3v-9.47h-1.19v-.97h2.63v10.03c0,1.12.29,1.64,1.03,1.64.38,0,.76-.16,1.03-.32l.27.79h0Z"/>
    <path class="st1" d="M77.07,73.64h1.51v-10.46h-1.51v-1.06h4.65v1.06h-1.51v10.46h1.51v1.08h-4.65v-1.08Z"/>
    <path class="st1" d="M87.58,66.43c1.85,0,3.29.85,3.29,2.11,0,.63-.47,1.08-1.03,1.08s-.99-.45-.99-.99c0-.27.18-.58.45-.67-.34-.25-.77-.47-1.44-.47-1.71,0-2.92,1.3-2.92,3.13,0,1.93,1.33,3.11,3.04,3.11.94,0,1.8-.45,2.32-1.1l.63.76c-.7.99-1.91,1.49-3.21,1.49-2.61,0-4.38-1.67-4.38-4.23,0-2.36,1.73-4.23,4.21-4.23h.03Z"/>
    <path class="st1" d="M93.65,71.02c.07,1.64,1.26,2.75,2.97,2.75,1.13,0,1.98-.4,2.5-.94l.52.83c-.67.68-1.86,1.22-3.26,1.22-2.61,0-4.32-1.67-4.32-4.3,0-2.29,1.58-4.16,4.2-4.16,2.27,0,3.83,1.46,3.83,3.69,0,.38-.02.67-.07.9h-6.37,0ZM98.63,70.09c-.02-1.48-.74-2.59-2.34-2.59s-2.61,1.22-2.67,2.59c0,0,5.01,0,5.01,0Z"/>
    <path class="st1" d="M115.73,70.97h1.12v3.75h-1.12v-.88c-.86.65-2.09,1.06-3.42,1.06-3.83,0-6.37-2.52-6.37-6.48,0-3.62,2.41-6.48,6.28-6.48,1.39,0,2.54.34,3.4.99v-.81h1.12v3.51h-1.12l-.05-1.48c-.79-.67-1.82-1.06-3.13-1.06-2.79,0-4.7,2.23-4.7,5.33s1.98,5.31,4.88,5.31c1.15,0,2.25-.41,3.06-1.1l.05-1.66h0Z"/>
    <path class="st1" d="M118.41,73.73h1.12v-6.14h-1.12v-.97h2.56v1.04c.43-.65,1.08-1.19,2.05-1.19s1.55.58,1.55,1.33c0,.61-.47.97-.97.97s-.92-.36-.92-.86c0-.14.07-.29.13-.34-.02-.04-.13-.07-.25-.07-.77.05-1.3.67-1.58,1.39v4.84h1.49v.99h-4.05v-.99h0Z"/>
    <path class="st1" d="M127.04,71.02c.07,1.64,1.26,2.75,2.97,2.75,1.13,0,1.98-.4,2.5-.94l.52.83c-.67.68-1.85,1.22-3.26,1.22-2.61,0-4.32-1.67-4.32-4.3,0-2.29,1.58-4.16,4.2-4.16,2.27,0,3.83,1.46,3.83,3.69,0,.38-.02.67-.07.9h-6.37ZM132.02,70.09c-.02-1.48-.74-2.59-2.34-2.59s-2.61,1.22-2.67,2.59h5.01Z"/>
    <path class="st1" d="M141.78,73.82c.2,0,.4-.07.56-.16l.23.81c-.32.22-.86.41-1.4.41-.76,0-1.08-.4-1.1-1.33-.43.67-1.28,1.33-2.65,1.33-1.57,0-2.67-.94-2.67-2.41,0-1.57,1.26-2.43,3.15-2.43.7,0,1.71.18,2.18.41.02-.29.02-.59.02-.97,0-1.3-.49-2.12-1.89-2.12-.67,0-1.13.16-1.49.36.18.09.43.38.43.76,0,.47-.38.81-.9.81-.58,0-.9-.43-.9-.92,0-1.12,1.46-1.93,3.1-1.93,2.11,0,3.04,1.1,3.04,3.11,0,.9-.07,2.59-.07,3.78,0,.32.07.49.36.49h0ZM137.94,73.82c1.08,0,1.82-.65,2.11-1.17l.02-1.35c-.5-.25-1.17-.4-1.89-.4-1.13,0-1.89.5-1.89,1.46,0,.85.65,1.46,1.66,1.46h-.01Z"/>
    <path class="st1" d="M143.58,73.73h1.12v-6.14h-1.12v-.97h2.56v1.12c.56-.74,1.64-1.26,2.7-1.26,1.17,0,2.11.54,2.43,1.51.52-.88,1.62-1.51,2.84-1.51,1.41,0,2.58.72,2.58,2.93v4.32h1.06v.99h-3.44v-.99h.94v-4.09c0-1.37-.59-2.04-1.71-2.04-1.01,0-1.75.52-2.14,1.21.02.11.02.31.02.45v4.47h.92v.99h-3.31v-.99h.95v-4.41c0-1.01-.63-1.71-1.69-1.71-.97,0-1.73.52-2.14,1.13v4.99h.94v.99h-3.49v-.99h-.02Z"/>
  </g>
</svg>