<?xml version="1.0" encoding="UTF-8"?>
<svg id="Layer_1" xmlns="http://www.w3.org/2000/svg" version="1.1" viewBox="0 0 144 38.92">
  <!-- Generator: Adobe Illustrator 30.0.0, SVG Export Plug-In . SVG Version: 2.1.1 Build 123)  -->
  <defs>
    <style>
      .st0 {
        fill: #d6719d;
      }

      .st1, .st2 {
        isolation: isolate;
      }

      .st2 {
        fill: #9e1f63;
        font-family: Charm-Regular, Charm;
        font-size: 12px;
      }
    </style>
  </defs>
  <g class="st1">
    <text class="st2" transform="translate(26.63 33.32)"><tspan x="0" y="0">Local Ice Cream Shop</tspan></text>
  </g>
  <g class="st1">
    <g class="st1">
      <path class="st0" d="M13.83,7.35c0,2.28-1.16,3.72-3.01,3.72-.53,0-1.02-.12-1.63-.7.17-.39.37-1.26.37-1.92,0-.8-.29-1.24-.68-1.24-1.05,0-2.06,3.35-2.06,5.86,0,1.56.39,2.46,1.09,2.46.85,0,1.34-1.31,1.34-3.26.44-.19,1.14-.29,1.58-.29,1.21,0,2.14.75,2.14,2.62,0,2.92-2.28,5.88-5.43,5.88-2.71,0-4.87-2.46-4.87-7.22,0-5.32,2.62-10.4,6.81-10.4,2.02,0,4.34,1.26,4.34,4.5Z"/>
      <path class="st0" d="M13.34,15.18c0-3.82,2.06-7.46,4.92-7.46,1.92,0,3.33,1.58,3.33,4.93,0,3.94-1.96,7.58-4.78,7.58-2.04,0-3.47-1.9-3.47-5.06ZM18.6,12.65c0-1.14-.22-1.68-.65-1.68-.85,0-1.53,2.28-1.53,4.08,0,1.17.29,1.65.68,1.65.83,0,1.5-2.09,1.5-4.06Z"/>
      <path class="st0" d="M25.32,9.97c.61-1.22,1.62-2.26,2.77-2.26,1.36,0,2.14,1.43,2.14,3.21,0,1.6-.58,3.4-.58,4.5,0,.75.17,1.31.78,1.31-.08,1.82-1,3.4-2.45,3.4-1.02,0-1.75-1.07-1.75-2.65,0-1.9.87-4.13.87-5.54,0-.61-.19-.97-.49-.97-.66,0-1.29,2.19-1.29,3.99,0,1.24.31,1.99.85,2.21-.14,1.51-1.09,2.97-2.33,2.97-1.04,0-1.94-.92-1.94-2.67,0-1.51.9-3.72.9-5.25,0-1.14-.25-1.75-.85-1.75.02-1.19.78-2.21,1.67-2.21.75,0,1.4.61,1.7,1.73Z"/>
      <path class="st0" d="M37.5,7.88c-1.04,0-1.75,1.56-2.25,3.5,1.16-.32,2.45-1.53,2.71-2.65.78.17,1.46,1.48,1.46,2.63,0,1.36-.54,2.72-2.47,3.35.56,1.17,1.09,2.65,1.09,4.21,0,4.23-1.7,5.83-3.49,5.83-2.01,0-3.3-2.46-3.3-6.08,0-.95.07-2.38.34-4.35-.51-.53-.88-1.39-.88-2.33,0-1.17.49-2.38,1.6-2.38h.12c.77-3.62,1.77-6.76,4.32-6.76,1.04,0,2.16,1.05,2.16,3.16,0,.68-.15,1.43-.51,2.24-.32-.24-.63-.36-.9-.36ZM34.57,15.2c-.15,1.31-.2,2.48-.2,3.14,0,1.14.2,2.07.78,2.07.32,0,.58-.49.58-1.43,0-1.22-.54-2.67-1.16-3.77Z"/>
      <path class="st0" d="M45.45,14.25c.7.22,1.07.95,1.07,1.8,0,1.9-1.79,4.18-4.1,4.18-2.06,0-3.67-1.8-3.67-5.13,0-3.89,2.25-7.39,5.16-7.39,1.43,0,2.82,1,2.82,3.26,0,.92-.29,2.33-1.28,3.28ZM42.62,15.25c-.24,0-.48-.02-.73-.05.05.92.31,1.51.97,1.51.73,0,1.33-.73,1.62-1.82-.51.22-1.12.36-1.85.36ZM41.96,13.62c1-.07,1.74-.63,1.74-1.75,0-.56-.19-.9-.49-.9-.56,0-1.05,1.22-1.24,2.65Z"/>
      <path class="st0" d="M63.45,2.85c1.14,0,1.82,1,1.82,2.29,0,1.41-.78,2.62-1.84,2.97.58.44.9,1.22.9,2.09,0,1.46-.83,3.96-.83,5.44,0,1.29.56,1.46,1.11,1.46-.1,1.46-.85,3.04-2.45,3.04-1,0-1.63-.75-1.92-1.87-.77,1.22-2.08,1.97-3.49,1.97-1.26,0-2.28-.66-2.82-1.85-.78,1.14-2.04,1.85-3.42,1.85-1.96,0-3.3-1.6-3.3-4.25,0-1.09.27-2.43.58-3.84-.58-.44-.92-1.12-.92-2.11s.44-2.26,1.16-2.38c.07.32.24.53.48.71.08-.58.12-1.14.12-1.68,0-.39-.02-.78-.07-1.14.63-.8,1.55-1.22,2.3-1.22,1,0,1.6.8,1.6,2.36,0,.78-.2,1.65-.46,2.58.51.05,1.12.1,1.84.1h.77c.17-.95.27-1.85.27-2.7,0-.39-.02-.75-.07-1.12.63-.8,1.55-1.22,2.3-1.22,1,0,1.6.8,1.6,2.36,0,.7-.15,1.48-.39,2.28,1.94-.39,2.76-.97,3.47-1.17-.43-.41-.66-1.09-.66-1.9,0-1.82,1.05-3.04,2.35-3.04ZM53.68,13.79c.03-.24.08-.49.14-.75-1.04-.05-2.33-.15-2.94-.24-.26.92-.43,1.85-.43,2.72,0,.66.19,1.19.56,1.19.65,0,.7-1.19.7-2.84.39-.17.78-.27,1.12-.27.31,0,.6.07.85.19ZM57.07,12.96c-.22.88-.37,1.73-.37,2.55,0,.66.19,1.19.56,1.19.65,0,.7-1.19.7-2.84.39-.17.78-.27,1.12-.27.48,0,.92.15,1.24.44.12-.66.26-1.31.41-1.92-.99.39-2.33.7-3.66.85Z"/>
      <path class="st0" d="M79.02,7.35c0,2.28-1.16,3.72-3.01,3.72-.53,0-1.02-.12-1.63-.7.17-.39.37-1.26.37-1.92,0-.8-.29-1.24-.68-1.24-1.05,0-2.06,3.35-2.06,5.86,0,1.56.39,2.46,1.09,2.46.85,0,1.34-1.31,1.34-3.26.44-.19,1.14-.29,1.58-.29,1.21,0,2.14.75,2.14,2.62,0,2.92-2.28,5.88-5.43,5.88-2.71,0-4.87-2.46-4.87-7.22,0-5.32,2.62-10.4,6.81-10.4,2.02,0,4.34,1.26,4.34,4.5Z"/>
      <path class="st0" d="M82.12,9.85c.53-1.17,1.38-2.14,2.55-2.14,1.24,0,2.25,1.07,2.25,3.04s-.9,3.43-2.54,3.43c-.46,0-.97-.22-1.23-.58.2-.32.37-.92.37-1.34,0-.53-.15-.88-.41-.88-.53,0-.92,2.11-.92,3.48,0,1.05.29,1.9.8,2.24-.19,1.51-1.12,3.04-2.6,3.04-1.04,0-1.77-1.05-1.77-2.67,0-1.48.9-3.65.9-5.25,0-1.05-.29-1.75-.85-1.75.05-1.29.83-2.21,1.72-2.21.73,0,1.4.56,1.72,1.6Z"/>
      <path class="st0" d="M93.03,14.25c.7.22,1.07.95,1.07,1.8,0,1.9-1.79,4.18-4.1,4.18-2.06,0-3.67-1.8-3.67-5.13,0-3.89,2.25-7.39,5.16-7.39,1.43,0,2.82,1,2.82,3.26,0,.92-.29,2.33-1.28,3.28ZM90.2,15.25c-.24,0-.48-.02-.73-.05.05.92.31,1.51.97,1.51.73,0,1.33-.73,1.62-1.82-.51.22-1.12.36-1.85.36ZM89.54,13.62c1-.07,1.74-.63,1.74-1.75,0-.56-.19-.9-.49-.9-.56,0-1.05,1.22-1.24,2.65Z"/>
      <path class="st0" d="M98.76,10.97c-.29,0-.53.34-.53.8,0,.39.15.71.31.83-.14.34-.6.83-1.31.83-1.07,0-1.77-1.07-1.77-2.46,0-1.82,1.22-3.26,3.23-3.26s3.62,1.48,3.62,4.21c0,1.24-.34,2.77-.34,3.57,0,.63.21,1.24.78,1.24,0,.97-.61,3.4-2.33,3.4-.6,0-1.28-.32-1.63-1.22-.54.83-1.34,1.31-2.19,1.31-1.28,0-2.4-1.07-2.4-3.14s1.04-3.52,2.65-3.52c.75,0,1.57.34,2.18.83.19-.66.31-1.39.31-2.02,0-.9-.22-1.41-.58-1.41ZM98.3,15.98c-.32-.24-.7-.44-.95-.44-.29,0-.49.22-.49.53,0,.29.17.51.49.51.34,0,.68-.22.95-.61Z"/>
      <path class="st0" d="M111.12,11.97c.08.9.12,1.9.12,2.8,0,2.04-.38,5.32-2.4,5.32-.94,0-1.6-.95-1.7-2.31-.31,1.26-1.19,2.36-2.23,2.36s-1.87-.97-1.87-2.67c0-1.41.9-3.72.9-5.25,0-1.14-.26-1.75-.85-1.75,0-1.29.87-2.24,1.67-2.24.73,0,1.38.53,1.68,1.6.51-1.17,1.34-2.11,2.45-2.11.73,0,1.38.66,1.79,1.65.68-.97,1.46-1.65,2.5-1.65,1.36,0,2.06,1.43,2.06,3.21,0,1.6-.58,3.14-.58,4.5,0,.75.17,1.31.78,1.31-.08,1.82-1.11,3.4-2.37,3.4-1.07,0-1.82-1.07-1.82-2.65,0-1.9,1.07-4.16,1.07-5.23,0-.61-.19-.95-.49-.95-.26,0-.49.27-.71.66ZM108.21,13.01c0-.88-.08-1.68-.46-1.68-.77,0-1.33,1.87-1.33,3.67,0,1.17.24,1.85.7,2.11.07-.95.49-2.53,1.09-4.11Z"/>
      <path class="st0" d="M122.57,14.25c.7.22,1.07.95,1.07,1.8,0,1.9-1.79,4.18-4.1,4.18-2.06,0-3.67-1.8-3.67-5.13,0-3.89,2.25-7.39,5.16-7.39,1.43,0,2.82,1,2.82,3.26,0,.92-.29,2.33-1.28,3.28ZM119.74,15.25c-.24,0-.48-.02-.73-.05.05.92.31,1.51.97,1.51.73,0,1.33-.73,1.62-1.82-.51.22-1.12.36-1.85.36ZM119.08,13.62c1-.07,1.74-.63,1.74-1.75,0-.56-.19-.9-.49-.9-.56,0-1.05,1.22-1.24,2.65Z"/>
      <path class="st0" d="M127.57,9.85c.53-1.17,1.38-2.14,2.55-2.14,1.24,0,2.25,1.07,2.25,3.04s-.9,3.43-2.54,3.43c-.46,0-.97-.22-1.22-.58.2-.32.37-.92.37-1.34,0-.53-.15-.88-.41-.88-.53,0-.92,2.11-.92,3.48,0,1.05.29,1.9.8,2.24-.19,1.51-1.12,3.04-2.6,3.04-1.04,0-1.77-1.05-1.77-2.67,0-1.48.9-3.65.9-5.25,0-1.05-.29-1.75-.85-1.75.05-1.29.83-2.21,1.72-2.21.73,0,1.4.56,1.72,1.6Z"/>
      <path class="st0" d="M132.97,18.38c-.31-.68-.41-1.56-.41-2.43,0-1.7.46-2.89.46-3.94s-.34-1.56-.94-1.56c.17-1.73,1.23-2.75,2.36-2.75,1.21,0,1.97,1.24,1.97,2.63,0,1.29-.68,3.72-.68,5.3,0,.68.24,1.07.61,1.07.68,0,1.14-2.04,1.14-3.6,0-1.36-.42-2.02-.94-2.36.19-1.51.99-3.04,2.25-3.04,1.04,0,2.04,1.31,2.04,3.72,0,5.66-2.23,13.3-6.64,13.3-1.31,0-2.67-1.09-2.67-3.43,0-1.46.63-2.53,1.43-2.92ZM137.15,18.77c-.54.58-1.33.88-2.35.88-.03.1-.05.22-.05.34,0,.53.29.8.66.8.46,0,1.29-.51,1.73-2.02Z"/>
    </g>
  </g>
</svg>